PathFileType	4	(X/Y/Z)	C:/Users/opensim2020/Desktop/walking_exp_matlab/subject02_walking15_straight_04.trc	
DataRate	CameraRate	NumFrames	NumMarkers	Units	OrigDataRate	OrigDataStartFrame	OrigNumFrames	
100.00	100.00	4	42	mm	100.00	1679	152	
Frame#	Time	LFHD			RFHD			LBHD			RBHD			C7			T10			CLAV			STRN			RBAK			LSHO			LUPA			LELB			LFRM			LWRA			LWRB			LFIN			RSHO			RUPA			RELB			RFRM			RWRA			RWRB			RFIN			LASI			RASI			LPSI			RPSI			LTHI			LKNE			LTIB			LANK			LHEE			LTOE			RTHI			RKNE			RTIB			RANK			RHEE			RTOE			*39			*40			*41			
		X1	Y1	Z1	X2	Y2	Z2	X3	Y3	Z3	X4	Y4	Z4	X5	Y5	Z5	X6	Y6	Z6	X7	Y7	Z7	X8	Y8	Z8	X9	Y9	Z9	X10	Y10	Z10	X11	Y11	Z11	X12	Y12	Z12	X13	Y13	Z13	X14	Y14	Z14	X15	Y15	Z15	X16	Y16	Z16	X17	Y17	Z17	X18	Y18	Z18	X19	Y19	Z19	X20	Y20	Z20	X21	Y21	Z21	X22	Y22	Z22	X23	Y23	Z23	X24	Y24	Z24	X25	Y25	Z25	X26	Y26	Z26	X27	Y27	Z27	X28	Y28	Z28	X29	Y29	Z29	X30	Y30	Z30	X31	Y31	Z31	X32	Y32	Z32	X33	Y33	Z33	X34	Y34	Z34	X35	Y35	Z35	X36	Y36	Z36	X37	Y37	Z37	X38	Y38	Z38	X39	Y39	Z39	X40	Y40	Z40	X41	Y41	Z41	X42	Y42	Z42	

1	0.000	-940.29950	1123.30627	1721.66675	-1085.78076	1123.66687	1711.67310	-935.83862	1246.61523	1634.88977	-1078.73022	1258.73511	1622.07312	-1009.18597	1294.67407	1502.18445	-1021.66058	1358.01050	1234.19885	-1008.17542	1153.42969	1433.91199	-1032.46851	1108.33691	1260.34033	-1081.18127	1360.05688	1338.44653	-834.53845	1213.49878	1468.02283	-742.22412	1251.51404	1276.61890	-713.88043	1273.91821	1144.09705	-680.43732	1292.64246	1018.07245	-688.14532	1264.57410	881.62817	-659.09265	1310.27100	898.07996	-640.48199	1302.02136	836.14343	-1194.62354	1227.25891	1484.23450	-1316.03735	1233.29846	1318.21936	-1373.22302	1188.17664	1186.32471	-1407.10315	1109.76184	1098.29187	-1404.45874	1007.93005	1011.77753	-1437.12195	1047.34497	987.90869	-1451.76025	983.37366	960.98053	-921.52698	1132.48499	955.39795	-1177.65027	1177.77917	949.95081	-967.89331	1349.68799	1013.41693	-1078.19604	1372.81812	1021.56903	-875.78326	1101.34033	662.39679	-938.57666	1036.34326	487.14246	-960.13922	1039.06702	294.43213	-1015.83252	971.57361	85.47401	-1074.72144	994.65930	55.63305	-998.45178	819.05481	90.19509	-1224.71021	1354.74231	673.08411	-1181.88831	1422.59827	473.32047	-1183.04077	1517.93921	310.95474	-1152.00513	1579.01208	123.56377	-1093.48621	1613.69165	73.35366	-1200.62341	1446.17761	44.06362	-1026.46655	1232.08875	1781.83960						 
2	0.010	-942.59790	1109.93054	1720.20703	-1087.97839	1110.34729	1710.05957	-938.46814	1232.65686	1632.73462	-1080.94763	1245.12915	1620.10986	-1010.98798	1280.69653	1500.37427	-1023.64264	1344.20520	1232.56982	-1010.23853	1139.49512	1432.03186	-1034.76257	1094.49585	1258.56177	-1082.85852	1346.31104	1336.75122	-836.48297	1199.09277	1465.95251	-744.17377	1238.26746	1274.84045	-715.71887	1262.33679	1143.29602	-680.54596	1284.60645	1018.88312	-685.05615	1261.01135	881.51501	-656.39386	1306.18567	900.09021	-636.47607	1300.71875	837.83289	-1196.66907	1213.46863	1482.23474	-1317.85840	1219.99255	1316.32043	-1376.33557	1173.99768	1185.24939	-1409.95142	1093.18506	1099.09192	-1406.82153	988.92584	1015.70233	-1439.19519	1027.65247	990.41565	-1453.92297	962.90747	965.35034	-923.74158	1118.40149	953.75507	-1180.57642	1163.64587	948.30096	-970.57703	1335.92358	1011.33502	-1080.19519	1359.17139	1019.49146	-876.95245	1089.32520	660.05365	-940.74744	1021.90491	485.01840	-961.94806	1020.75830	292.76901	-1017.84479	950.13696	84.72648	-1076.62549	972.99768	54.13152	-1001.52222	797.61414	91.94395	-1227.56641	1343.94629	672.93597	-1184.47498	1413.53345	473.84274	-1184.75989	1512.00623	313.26807	-1153.24951	1577.02930	127.32859	-1094.39185	1612.53552	78.45074	-1200.93835	1445.97473	44.22345	-1028.64771	1218.87634	1779.99097	-3356.80591	2846.11890	1034.20630			 
3	0.020	-944.70239	1096.42212	1719.06226	-1090.14697	1096.90625	1708.60388	-940.35388	1218.95239	1631.12451	-1082.86743	1231.48950	1618.31152	-1012.47473	1266.66797	1498.85242	-1025.47571	1329.84229	1230.96399	-1012.08978	1125.46411	1430.45642	-1036.79114	1080.46741	1257.01794	-1084.24426	1332.40100	1335.23645	-837.99042	1184.60107	1464.31836	-745.85785	1224.29590	1273.12939	-717.55359	1250.42151	1142.42041	-680.54962	1275.83899	1019.94556	-681.89258	1256.65356	881.62750	-654.19733	1301.28259	902.36456	-633.41309	1298.92932	840.29541	-1198.44006	1199.67200	1480.40173	-1319.55615	1206.93359	1314.56189	-1379.03760	1160.42957	1184.14355	-1412.33960	1077.30225	1099.90381	-1408.75720	970.72345	1019.60883	-1440.92334	1008.73248	992.99243	-1455.66455	943.42401	969.83826	-926.10126	1103.84570	952.57562	-1183.77771	1149.78076	947.03308	-972.73938	1321.44812	1009.37946	-1082.01465	1344.88538	1017.64691	-878.23346	1076.51404	658.55627	-942.95886	1007.99469	483.19058	-964.36902	1005.22583	291.13083	-1019.76691	932.31439	83.29526	-1078.39246	954.91132	52.31818	-1003.65771	779.88312	91.93740	-1230.29395	1332.48755	673.10962	-1187.38525	1403.56812	474.53220	-1186.81738	1505.47290	315.98416	-1154.95117	1574.70264	131.63516	-1095.75427	1611.07971	84.32902	-1201.45251	1445.61060	43.93706	-1030.75879	1205.50623	1778.29578	-3356.93457	2846.08521	1034.23010			 
4	0.030	-946.61469	1082.83948	1718.07019	-1092.11438	1083.43286	1707.34302	-942.06128	1205.10913	1629.89771	-1084.53210	1217.79871	1616.71814	-1013.61713	1252.56470	1497.57178	-1027.08838	1315.68835	1229.60559	-1013.61096	1111.37427	1429.15161	-1038.49109	1066.28857	1255.78772	-1085.44788	1318.41150	1333.84460	-839.23431	1169.79333	1462.85168	-747.66608	1210.33545	1271.67773	-719.74884	1237.66248	1141.74097	-680.89526	1266.45618	1021.10785	-679.51245	1251.54675	882.10040	-652.58063	1295.60913	904.95459	-630.70752	1296.11414	843.09631	-1199.96167	1185.93799	1478.80627	-1320.93616	1194.33081	1312.95532	-1381.22327	1147.40405	1183.01489	-1414.28809	1062.10852	1100.67639	-1410.35730	953.47504	1023.47180	-1442.14917	990.64990	995.58704	-1457.40833	924.81134	974.55511	-928.37811	1088.65674	951.91284	-1186.54419	1134.86121	946.23730	-974.96576	1306.84753	1008.01544	-1083.79431	1329.97327	1016.01837	-879.97791	1062.09021	657.72083	-945.17572	994.58838	481.37964	-966.56635	991.84619	289.12317	-1021.55829	918.18518	81.38144	-1080.30676	940.41278	50.14054	-1004.86664	765.92981	89.94943	-1232.86108	1320.22522	673.57410	-1190.59290	1392.74341	475.38913	-1189.26343	1498.25537	319.11044	-1157.07263	1571.95166	136.55034	-1097.55640	1609.24890	90.96935	-1202.16443	1445.33167	44.21170	-1032.81262	1192.13660	1776.92102	-3356.89282	2846.06177	1034.28931			 
